<svg width="37" height="36" viewBox="0 0 37 36" fill="none" xmlns="http://www.w3.org/2000/svg">
<path d="M20.4112 0.865747C20.8883 0.369367 21.6883 0.375113 22.1312 0.902113C28.3967 8.35741 30.2568 19.0527 24.8581 24.6692C19.4595 30.2857 8.66977 28.8805 0.940118 22.9484C0.393724 22.5291 0.354404 21.732 0.831527 21.2356C1.26659 20.783 1.97767 20.7478 2.48238 21.1216C8.82798 25.8214 15.964 25.1746 20.4776 20.4789C24.9912 15.7831 25.3395 8.64346 20.3663 2.51594C19.9707 2.02858 19.9761 1.31837 20.4112 0.865747Z" fill="#9FC8A7"/>
<path d="M17.509 12.3255C15.3907 14.5293 15.4643 18.029 17.6735 20.1422C19.8826 22.2554 23.3908 22.182 25.5091 19.9781C27.6274 17.7743 27.5538 14.2746 25.3447 12.1614C23.1355 10.0482 19.6274 10.1217 17.509 12.3255Z" fill="#DBC181"/>
<path d="M13.16 35.0712C13.6707 34.5399 13.6764 33.7058 13.2091 33.1363C7.14806 25.7494 7.42563 17.2474 12.7226 11.7367C18.0195 6.22595 26.5229 5.59256 34.1755 11.3237C34.7655 11.7656 35.6007 11.7248 36.1114 11.1936C36.6698 10.6125 36.6246 9.67991 35.9874 9.18604C26.6685 1.96328 13.7638 0.080168 7.42785 6.67188C1.09185 13.2636 3.51931 26.0467 11.1442 35.0319C11.6655 35.6463 12.6015 35.6522 13.16 35.0712Z" fill="#9FC8A7"/>
<path d="M6.68764 11.6812C4.12443 14.3479 4.21352 18.5825 6.88664 21.1395C9.55975 23.6966 13.8046 23.6077 16.3678 20.941C18.9311 18.2744 18.842 14.0397 16.1688 11.4827C13.4957 8.92568 9.25085 9.01456 6.68764 11.6812Z" fill="#4A5C4D"/>
</svg>
