<svg width="68" height="67" viewBox="0 0 68 67" fill="none" xmlns="http://www.w3.org/2000/svg">
<path d="M37.6101 0.700143C38.5113 -0.250069 40.0223 -0.239069 40.8589 0.76976C52.6938 15.0413 56.2072 35.5151 46.0098 46.2667C35.8124 57.0183 15.4318 54.3284 0.831334 42.9727C-0.200743 42.17 -0.275016 40.6442 0.626218 39.6939C1.44801 38.8275 2.79115 38.7601 3.74449 39.4756C15.7306 48.4724 29.2098 47.2342 37.7355 38.2453C46.2611 29.2563 46.9191 15.5889 37.5252 3.85909C36.778 2.92614 36.7883 1.56659 37.6101 0.700143Z" fill="#9FC8A7"/>
<path d="M32.1282 22.6374C28.1269 26.8561 28.266 33.5555 32.4388 37.6008C36.6117 41.6461 43.2381 41.5055 47.2394 37.2867C51.2407 33.068 51.1016 26.3686 46.9288 22.3233C42.7559 18.278 36.1295 18.4186 32.1282 22.6374Z" fill="#DBC181"/>
<path d="M23.9133 66.1792C24.8779 65.1622 24.8888 63.5655 24.006 62.4751C12.5574 48.3345 13.0817 32.0592 23.0871 21.5102C33.0924 10.9611 49.1544 9.74862 63.6092 20.7196C64.7238 21.5655 66.3013 21.4876 67.2659 20.4705C68.3208 19.3583 68.2353 17.573 67.0317 16.6276C49.4294 2.80113 25.0539 -0.803678 13.0859 11.8147C1.11793 24.4332 5.70314 48.9038 20.1057 66.1039C21.0905 67.28 22.8584 67.2914 23.9133 66.1792Z" fill="#9FC8A7"/>
<path d="M11.6878 21.4041C6.84614 26.5088 7.01443 34.6151 12.0636 39.51C17.1129 44.4049 25.131 44.2347 29.9726 39.13C34.8142 34.0252 34.6459 25.9189 29.5967 21.024C24.5475 16.1292 16.5294 16.2993 11.6878 21.4041Z" fill="#4A5C4D"/>
</svg>
